<svg width="120" height="120" viewBox="0 0 120 120" xmlns="http://www.w3.org/2000/svg" role="img" aria-labelledby="carclinicLogoTitle carclinicLogoDesc">
  <title id="carclinicLogoTitle">CarClinic Logo</title>
  <desc id="carclinicLogoDesc">Modern front-facing car badge with gradient ring</desc>
  <defs>
    <linearGradient id="carclinicGradient" x1="0%" y1="0%" x2="100%" y2="100%">
      <stop offset="0%" stop-color="#F02801" />
      <stop offset="100%" stop-color="#FF7A1F" />
    </linearGradient>
    <linearGradient id="carclinicBody" x1="0%" y1="0%" x2="0%" y2="100%">
      <stop offset="0%" stop-color="#1B2436" />
      <stop offset="100%" stop-color="#0F172A" />
    </linearGradient>
  </defs>
  <rect x="6" y="6" width="108" height="108" rx="26" fill="#FFF5F1" />
  <circle cx="60" cy="60" r="44" fill="none" stroke="url(#carclinicGradient)" stroke-width="10" />
  <g transform="translate(22 34)">
    <path
      d="M12 38c-5.5 0-8-2.3-8-8.5 0-7.8 4-15 10.5-18.8 9-5 19.8-6.7 33.5-6.7 13.7 0 24.5 1.7 33.5 6.7C78 14.5 82 21.7 82 29.5c0 6.2-2.5 8.5-8 8.5H12Z"
      fill="url(#carclinicBody)"
    />
    <path
      d="M20 30c0-9.5 7.5-17 17-17h26c9.5 0 17 7.5 17 17v4c0 3.5-2 5.5-6 5.5H26c-4 0-6-2-6-5.5v-4Z"
      fill="#182033"
    />
    <rect x="30" y="20" width="38" height="12" rx="6" fill="#D9E6FF" opacity="0.85" />
    <path d="M18 37c-3 0-6 3.5-6 6 0 3 2.5 5 6 5h64c3.5 0 6-2 6-5 0-2.5-3-6-6-6H18Z" fill="#0C111D" />
    <circle cx="21" cy="42" r="5" fill="#1B2436" stroke="#FECB2E" stroke-width="3" />
    <circle cx="75" cy="42" r="5" fill="#1B2436" stroke="#FECB2E" stroke-width="3" />
    <path d="M34 48c4 4 9 6 13 6s9-2 13-6" stroke="#FFB27D" stroke-width="4" stroke-linecap="round" opacity="0.8" />
  </g>
</svg>
